<svg width="255" height="122" viewBox="0 0 255 122" fill="none" xmlns="http://www.w3.org/2000/svg">
<g clip-path="url(#clip0_268_24)">
<path d="M152.412 54.2388C151.665 57.6572 155.124 62.1009 164.031 63.1978C172.932 64.2931 187.127 59.1961 187.127 59.1961C187.127 59.1961 175.679 50.5264 166.781 49.4294C157.873 48.3327 153.161 50.823 152.412 54.2388Z" fill="#14472C"/>
<path d="M149.656 44.7813C153.493 46.4106 158.92 44.9711 162.494 38.3673C166.075 31.7593 163.317 19.3481 163.317 19.3481C163.317 19.3481 151.259 25.0108 147.682 31.6267C144.105 38.2348 145.817 43.1418 149.656 44.7813Z" fill="#14472C"/>
<path d="M206.438 44.0688C206.438 44.0688 195.386 38.4446 186.415 38.1493C177.447 37.8554 172.291 40.979 171.854 44.4421C171.423 47.9053 174.026 51.0393 182.957 51.8519C192.512 52.7204 206.737 44.3611 206.438 44.0688Z" fill="#14472C"/>
<path d="M170.943 35.5176C174.822 36.4599 179.956 35.1213 183.273 28.9951C186.855 22.3809 184.164 10.3047 184.164 10.3047C184.164 10.3047 171.814 15.6627 168.53 22.4178C165.246 29.1728 166.888 34.5325 170.943 35.5176Z" fill="#14472C"/>
<path d="M227.175 32.6131C227.175 32.6131 213.859 26.1182 204.893 26.638C195.939 27.1553 192.673 29.9746 192.558 33.4712C192.436 36.9603 197.18 40.9572 206.142 40.4508C215.1 39.9292 227.175 32.6131 227.175 32.6131Z" fill="#14472C"/>
<path d="M191.085 25.2956C194.866 27.0687 200.383 25.5511 204.189 19.0748C207.993 12.5904 205.068 0 205.068 0C205.068 0 193.345 5.31406 189.54 11.7843C185.734 18.2749 187.3 23.5261 191.085 25.2956Z" fill="#14472C"/>
<path d="M205.541 23.7335C207.836 26.5906 212.729 27.1829 220.317 23.0481C227.904 18.9198 234.362 7.82057 234.362 7.82057C234.362 7.82057 222.426 5.40539 214.831 9.53665C207.242 13.6818 203.238 20.8636 205.541 23.7335Z" fill="#14472C"/>
<path d="M197.691 25.2503C197.128 25.4857 196.607 25.6436 196.159 25.7519C193.594 27.436 189.912 29.7445 185.336 32.2376C181.83 34.1468 179.363 35.1714 170.896 39.1792C156.111 46.1774 152.5 47.5477 149.448 48.5957C142.475 50.9926 137.045 52.1751 134.766 52.6399C133.76 52.8467 129.714 53.4033 121.656 54.5108C120.104 54.7249 117.827 55.0245 114.829 54.8135C113.306 54.7051 112.054 54.4986 111.204 54.3304C113.834 54.2446 116.032 54.0105 117.668 53.7871C121.116 53.3163 123.498 52.9703 126.249 51.6135C127.662 50.9175 128.74 50.1666 129.45 49.6221C127.902 50.1696 125.599 50.8794 122.744 51.3734C120.408 51.7757 118.404 51.9106 113.016 51.9165C106.635 51.9209 103.446 51.924 99.3631 51.6135C95.7267 51.3382 93.1332 50.9666 87.9433 50.2264C81.9574 49.3713 77.0855 48.5007 74.048 47.9318C65.8248 46.3913 65.7181 46.0517 59.4271 44.9752C54.3763 44.1092 50.6788 43.4756 45.5913 43.2234C41.251 43.0079 37.0773 42.8257 31.6366 43.7666C28.7474 44.2667 24.2875 45.0744 19.272 47.7158C17.8359 48.4734 15.2133 49.977 12.4314 52.4395C11.2939 53.4463 10.1734 54.4526 9.01124 56.057C7.9962 57.4627 6.39474 59.6762 6.19603 62.0871C5.77152 67.2083 11.85 71.0968 12.2309 71.3322C12.4242 70.6407 12.7192 69.7336 13.1787 68.7119C13.4435 68.1215 14.2274 66.4573 15.7155 64.5924C17.6093 62.2184 19.5662 60.8709 21.29 59.7023C22.6587 58.7753 24.6381 57.5855 27.1795 56.5343C31.2199 54.8625 34.5711 54.4145 36.7866 54.1344C41.3921 53.55 44.7984 53.896 45.7123 53.9983C46.7256 54.1114 47.5663 54.2506 48.1604 54.3607C46.447 57.1951 43.636 61.8226 40.0935 67.5357C34.0459 77.2855 32.5336 79.4453 28.3126 86.5489C22.6556 96.0682 23.0306 96.1305 19.8399 101.625C19.448 102.3 18.37 104.144 17.2114 106.74C16.6584 107.978 16.2531 109.019 15.9879 109.729C15.8226 110.427 15.6208 111.733 16.0781 113.214C16.4445 114.401 17.069 115.129 17.7995 116.021C18.2846 116.612 18.776 117.096 19.2566 117.506C22.3481 115.676 25.9105 114.54 29.4349 114.297C29.5283 114.089 29.6215 113.881 29.7179 113.667C30.8419 111.17 32.9576 106.483 35.6539 100.992C37.566 97.0946 39.408 93.5303 41.8603 88.9489C48.7897 76.0129 56.9838 61.7078 59.986 56.4885C62.3603 57.0161 65.5232 57.6678 69.2758 58.2983C72.4587 58.835 79.258 59.8905 88.0795 60.4719C94.8834 60.9198 100.188 60.9077 102.58 60.8786C106.18 60.8387 111.968 60.7576 119.526 59.8844C122.732 59.5128 126.059 59.1286 130.356 58.2081C133.024 57.6375 137.866 56.475 146.353 53.2291C154.333 50.1756 160.081 47.3672 165.746 44.5818C172.372 41.3237 177.941 38.1086 189.081 31.6792C190.604 30.7998 193.525 29.0988 196.965 26.3365C197.932 25.5607 198.693 24.8999 199.161 24.4854C198.761 24.7377 198.272 25.0071 197.691 25.2503Z" fill="#14472C"/>
<path d="M79.788 78.9427C79.1448 79.0103 78.1927 79.1677 77.1133 79.5774C76.2958 79.8878 75.3279 80.3713 73.2626 82.0221C72.1971 82.8723 70.9082 83.9112 69.3203 85.5524C67.3226 87.6189 66.0549 89.4011 65.2877 90.4869C64.2332 91.9801 63.0891 93.6195 61.9794 96.0103C61.6149 96.7969 61.0777 98.0466 60.5755 99.6327C60.2831 100.557 59.9186 101.722 59.669 103.299C59.5006 104.367 59.317 105.571 59.4424 107.148C59.5435 108.413 59.6386 109.445 60.3491 110.498C60.5465 110.791 61.0134 111.467 61.8893 111.946C62.8644 112.481 63.7874 112.466 64.5621 112.445C65.7994 112.41 66.8848 112.09 67.9163 111.629C69.3801 110.975 70.6327 110.078 72.4928 108.28C75.0589 105.797 76.7136 103.596 77.0691 103.119C77.8559 102.062 79.9043 99.209 81.7812 95.105C83.0472 92.3379 83.669 90.2392 83.8205 89.7176C84.2784 88.1388 84.7593 86.4474 84.9076 84.1497C84.9932 82.8342 85.0744 81.4086 84.6812 79.5774C84.545 78.9413 84.1083 77.1272 82.8684 75.0941C81.8867 73.4849 80.7723 72.3471 79.9226 71.6096C80.5274 71.5746 81.3876 71.5564 82.4154 71.6539C83.3718 71.7445 84.8707 71.8988 86.6297 72.6499C86.9744 72.7969 88.0185 73.2634 89.2128 74.1444C89.9887 74.7181 91.1297 75.5762 92.0679 77.0413C92.8796 78.3095 93.1641 79.4461 93.3817 80.3453C93.6725 81.5556 93.9419 83.3298 93.6524 86.2775C93.5392 87.4291 93.1842 90.3692 91.7954 94.1993C90.4374 97.9439 88.8192 100.535 87.6708 102.349C87.0051 103.403 85.1984 106.171 82.3246 109.321C79.6851 112.214 77.4502 114.004 76.8421 114.483C75.3248 115.677 74.03 116.685 72.0396 117.65C70.9418 118.184 69.1888 119.018 66.7376 119.371C65.0491 119.614 63.7294 119.53 62.7511 119.463C61.5489 119.377 59.8512 119.247 57.8562 118.556C55.1482 117.618 53.3937 116.164 52.1016 115.071C50.8013 113.971 49.5077 112.879 48.3859 110.951C47.9019 110.118 47.0965 108.524 46.7554 106.379C46.3601 103.897 46.7875 101.981 47.2545 99.9952C47.386 99.4233 47.9249 97.2097 49.6547 93.5203C51.8885 88.7571 54.2511 85.4973 54.7763 84.7828C57.2026 81.4758 59.3539 79.4092 61.2993 77.54C62.7295 76.1664 64.2466 74.8325 66.4209 73.7373C68.2761 72.7999 69.5473 72.5748 70.4535 72.5137C70.6709 72.4998 71.7484 72.4374 73.1263 72.6958C73.6763 72.7981 74.3485 72.9252 75.1656 73.2847C75.8075 73.566 76.9341 74.1657 77.9292 75.3208C78.6445 76.1499 79.0117 76.9404 79.2442 77.4485C79.5108 78.0356 79.6808 78.5541 79.788 78.9427Z" fill="#14472C"/>
<path d="M108.924 69.8437C107.614 72.5971 106.529 74.8257 105.798 76.3168C104.261 79.4544 103.091 81.7733 101.041 86.0056C99.574 89.0314 99.2463 89.755 98.9097 90.5333C98.5207 91.4342 97.4814 93.8911 96.3729 97.2792C95.4925 99.9684 95.0471 101.352 94.7867 103.21C94.5953 104.574 94.4117 105.957 94.6505 107.782C94.9321 109.922 95.6396 111.491 96.1016 112.49C96.4524 113.253 96.892 114.189 97.7322 115.252C98.4044 116.101 99.0996 116.958 100.315 117.471C101.102 117.802 101.825 117.871 102.309 117.877C102.483 116.984 102.745 115.77 103.124 114.347C103.423 113.227 104.348 109.9 106.297 105.564C108.299 101.102 110.302 97.986 112.05 95.2859C112.484 94.6191 114.765 91.1208 117.988 87.2739C118.811 86.2889 118.185 87.087 123.197 82.3378C123.39 82.1558 124 81.5792 124.966 81.2069C125.468 81.0128 126.385 80.6749 127.457 80.9807C128.274 81.2148 128.776 81.7091 128.953 81.8864C130.032 82.974 130.072 84.4195 130.085 84.9642C130.093 85.2377 130.081 85.6094 129.949 86.3222C129.782 87.2262 129.475 88.3857 128.499 90.5333C128.011 91.6086 127.521 92.6871 126.688 94.0637C125.951 95.2769 125.805 95.309 124.513 97.2792C124.289 97.6169 123.568 98.7218 122.7 100.176C121.619 101.983 121.079 102.887 120.615 103.933C120.216 104.831 119.636 106.162 119.301 108.008C119.134 108.929 118.929 110.058 119.075 111.54C119.273 113.573 120.01 115.025 120.434 115.84C120.634 116.227 121.498 117.842 123.197 119.462C124.101 120.323 124.918 121.102 126.279 121.59C127.313 121.96 128.24 122.012 128.861 121.998C128.861 121.2 128.896 120.11 129.045 118.827C129.225 117.247 129.553 115.59 130.221 113.396C130.679 111.89 131.746 108.664 133.982 104.342C134.715 102.923 135.785 101.103 137.924 97.4595C138.443 96.5773 139.221 95.1958 140.779 92.4346C141.531 91.1026 142.303 89.7198 142.999 87.7708C143.552 86.2247 143.674 85.3969 143.724 84.9195C143.875 83.4725 143.67 82.3669 143.497 81.4338C143.151 79.5677 142.548 78.203 142.274 77.6311C141.821 76.6793 141.304 75.5979 140.234 74.4615C138.775 72.9118 137.162 72.1946 136.294 71.8812C135.658 71.6514 134.582 71.2738 133.166 71.292C131.662 71.3119 130.467 71.771 129.225 72.378C126.108 73.9017 123.883 75.7631 122.971 76.5432C121.573 77.7426 119.14 79.878 116.31 83.1088C114.471 85.2074 113.053 87.0858 112.05 88.4959C111.873 88.6627 111.646 88.8357 111.507 88.7681C111.225 88.6306 111.484 87.5918 111.507 87.5003C111.644 86.9587 111.85 86.6035 112.323 85.7793C112.565 85.357 112.799 84.9304 113.047 84.511C113.704 83.4115 114.126 82.4813 114.542 81.5699C115.348 79.803 115.751 78.9189 115.948 77.8115C116.12 76.8446 116.3 75.8273 115.902 74.6419C115.558 73.6186 114.959 72.999 114.226 72.2437C113.586 71.5829 112.739 70.7078 111.326 70.2062C110.346 69.8572 109.477 69.822 108.924 69.8437Z" fill="#14472C"/>
<path d="M163.57 70.251C162.426 71.6399 161.018 73.3929 159.449 75.4564C158.22 77.0703 156.033 79.9871 153.465 83.8327C151.872 86.2204 150.279 88.7077 148.617 91.5286C148.387 91.9214 147.181 93.9771 145.853 96.7795C144.879 98.8356 144.518 99.865 144.269 100.991C143.86 102.828 143.89 104.292 143.904 104.703C144.025 108.203 145.451 110.736 146.308 112.218C147.393 114.098 148.366 115.024 148.663 115.296C149.809 116.351 150.875 116.881 151.155 117.017C152.861 117.84 154.353 117.947 154.735 117.967C156.722 118.078 158.195 117.485 159.357 117.017C161.018 116.35 162.117 115.542 163.299 114.663C163.792 114.297 165.126 113.277 167.059 111.267C168.35 109.927 170.026 108.023 171.772 105.519C171.801 105.294 171.977 105.124 172.18 105.11C172.341 105.099 172.5 105.188 172.589 105.337C172.594 105.644 172.598 106.117 172.589 106.695C172.561 108.142 172.468 108.622 172.453 109.502C172.448 109.759 172.434 110.964 172.724 112.49C173.028 114.092 173.513 115.244 173.676 115.612C174.165 116.729 174.687 117.52 174.898 117.831C175.049 118.052 175.361 118.447 175.986 119.235C176.883 120.37 177.081 120.568 177.346 120.774C177.909 121.217 178.437 121.436 178.705 121.544C179.109 121.71 179.55 121.883 180.155 121.907C180.553 121.922 180.883 121.867 181.106 121.817C181.147 121.203 181.224 120.325 181.379 119.281C181.74 116.841 182.296 115.049 182.648 113.939C184.332 108.604 185.172 105.936 185.638 104.613C187.265 99.9902 188.077 97.6805 188.945 95.7839C190.096 93.2739 190.499 92.1494 191.301 89.8992C191.684 88.8286 192.053 87.7242 192.209 86.2312C192.38 84.5672 192.2 83.2836 192.117 82.7911C192.008 82.1334 191.803 80.9557 191.12 79.5773C190.822 78.9747 190.323 77.9852 189.353 77.0412C187.903 75.6265 186.223 75.1152 185.276 74.9135C183.519 77.9925 180.004 84.1418 177.029 89.3563C177.029 89.3563 175.394 92.2227 171.999 97.5951C171.999 97.5951 171.257 98.7679 168.645 102.395C168.343 102.813 167.492 103.986 166.199 105.292C165.571 105.925 165.078 106.349 164.522 106.74C163.98 107.122 163.34 107.565 162.393 107.873C161.814 108.061 161.129 108.273 160.263 108.143C159.951 108.097 159.418 108.012 158.904 107.646C158.594 107.426 158.13 106.99 157.77 105.879C157.332 104.526 157.441 103.383 157.59 101.987C157.826 99.761 158.415 98.2711 158.541 97.9577C158.855 97.1837 159.153 96.6481 159.629 95.83C161.093 93.3041 162.327 91.3417 163.117 90.08C165.318 86.5678 164.62 87.6154 165.972 85.4618C166.459 84.6877 166.886 83.8787 167.376 83.1077C167.817 82.4148 168.096 82.0185 168.328 81.3425C168.377 81.2016 168.582 80.5854 168.645 79.6216C168.728 78.3551 168.503 77.4007 168.238 76.3175C168.038 75.4946 167.791 74.5142 167.195 73.3287C166.719 72.3818 166.384 71.73 165.655 71.1569C164.886 70.5511 164.074 70.337 163.57 70.251Z" fill="#14472C"/>
<path d="M195.608 101.217C196.068 101.941 196.698 102.865 197.509 103.889C198.933 105.68 200.191 106.86 200.501 107.148C202.596 109.095 204.342 110.101 205.167 110.544C206.299 111.148 206.938 111.35 207.57 111.448C208.924 111.663 210.033 111.375 210.605 111.177C211.201 110.972 211.948 110.715 212.6 110.001C213.186 109.357 213.39 108.676 213.505 108.28C214.004 106.552 213.476 105.016 213.234 104.341C212.789 103.101 212.208 102.389 211.104 100.991C209.85 99.4033 208.63 97.7896 207.387 96.1912C204.389 92.3334 203.932 91.3835 203.627 90.6233C202.83 88.6302 202.704 86.9782 202.675 86.5497C202.638 85.9532 202.511 83.2336 203.944 80.165C205.181 77.5204 206.928 76.0107 208.249 74.8682C208.96 74.2563 210.694 72.8441 213.278 71.7003C214.298 71.2489 215.78 70.605 217.854 70.2958C220.729 69.8692 222.942 70.3527 223.473 70.478C224.606 70.7425 226.219 71.1357 227.916 72.3776C229.698 73.6858 230.597 75.2137 230.995 75.9097C231.432 76.6684 231.975 77.635 232.22 79.0346C232.364 79.8606 232.605 81.3583 231.903 83.0181C231.378 84.2525 230.565 85.0278 230.089 85.4162C229.798 84.9497 229.311 84.2799 228.55 83.651C227.461 82.7532 226.405 82.4259 225.24 82.0663C223.755 81.6076 222.614 81.5372 221.662 81.4793C220.838 81.4272 220.355 81.4576 219.849 81.5694C219.418 81.6644 218.755 81.8187 218.083 82.3387C217.94 82.4474 217.325 82.9401 216.904 83.8333C216.827 83.9937 216.547 84.6193 216.496 85.7346C216.478 86.1383 216.472 87.0151 216.948 88.7222C217.039 89.0433 217.387 90.2548 218.219 92.072C218.6 92.9072 218.642 92.9041 219.713 95.0149C220.485 96.5355 220.872 97.297 221.118 97.8675C221.774 99.3834 222.141 100.614 222.386 101.444C222.758 102.7 222.944 103.328 223.067 104.159C223.192 105.011 223.386 106.425 223.02 108.19C222.933 108.616 222.616 110.016 221.662 111.584C220.751 113.082 219.727 113.966 218.853 114.708C217.305 116.023 215.912 116.725 214.956 117.198C214.52 117.415 212.469 118.414 209.563 119.055C208.811 119.221 207.663 119.469 206.119 119.552C204.765 119.625 203.691 119.685 202.404 119.371C200.707 118.96 199.61 118.138 198.235 117.109C196.604 115.888 195.494 114.634 194.836 113.804C193.7 112.369 192.689 111.129 192.163 109.185C191.858 108.054 191.468 106.608 192.072 105.066C192.613 103.688 193.767 102.689 194.475 102.077C194.92 101.692 195.321 101.407 195.608 101.217Z" fill="#14472C"/>
<path d="M247.394 56.9084C248.698 56.9084 249.949 57.2342 251.146 57.8858C252.343 58.5362 253.286 59.4707 253.971 60.6869C254.656 61.9044 255 63.1769 255 64.5059C255 65.8294 254.663 67.0897 253.991 68.2904C253.32 69.4898 252.383 70.4276 251.18 71.0976C249.979 71.7687 248.717 72.1051 247.394 72.1051C246.071 72.1051 244.806 71.7687 243.607 71.0976C242.406 70.4276 241.469 69.4898 240.796 68.2904C240.125 67.0897 239.789 65.8294 239.789 64.5059C239.789 63.1769 240.132 61.9044 240.815 60.6869C241.501 59.4707 242.442 58.5362 243.641 57.8858C244.838 57.2342 246.089 56.9084 247.394 56.9084ZM247.404 58.3953C246.357 58.3953 245.356 58.6567 244.398 59.18C243.436 59.7017 242.68 60.4526 242.126 61.4318C241.573 62.409 241.297 63.4355 241.297 64.5059C241.297 65.5708 241.568 66.5863 242.109 67.5516C242.646 68.5168 243.399 69.2712 244.365 69.814C245.331 70.3557 246.345 70.6262 247.404 70.6262C248.47 70.6262 249.483 70.3557 250.448 69.814C251.411 69.2712 252.163 68.5168 252.708 67.5516C253.248 66.5863 253.521 65.5708 253.521 64.5059C253.521 63.4355 253.242 62.409 252.689 61.4318C252.137 60.4526 251.38 59.7017 250.417 59.18C249.456 58.6567 248.448 58.3953 247.404 58.3953ZM244.226 68.5735V60.5091H245.864C247.401 60.5091 248.26 60.5156 248.447 60.5278C248.989 60.575 249.41 60.6821 249.712 60.8504C250.013 61.0203 250.264 61.277 250.466 61.6242C250.669 61.9715 250.769 62.357 250.769 62.7794C250.769 63.3622 250.58 63.859 250.199 64.2736C249.819 64.6867 249.283 64.9435 248.595 65.0415C248.84 65.1347 249.029 65.2357 249.16 65.3446C249.294 65.4547 249.474 65.6611 249.709 65.9638C249.768 66.0435 249.966 66.3722 250.302 66.9459L251.255 68.5735H249.231L248.557 67.2641C248.099 66.3848 247.723 65.831 247.423 65.6029C247.126 65.3737 246.749 65.2605 246.291 65.2605H245.864V68.5735H244.226ZM245.596 63.9909H246.262C247.208 63.9909 247.796 63.954 248.024 63.8819C248.253 63.8087 248.433 63.6818 248.565 63.4995C248.698 63.3175 248.762 63.111 248.762 62.8801C248.762 62.6537 248.7 62.4551 248.571 62.2791C248.441 62.1047 248.259 61.9794 248.02 61.9026C247.783 61.8263 247.196 61.7882 246.262 61.7882H245.596V63.9909Z" fill="#14472C"/>
<path d="M30.8242 112.304C30.9818 111.8 31.1503 111.3 31.3446 110.808C31.464 110.367 31.6111 109.939 31.7825 109.518C31.9249 109.053 32.095 108.6 32.2955 108.16C32.4136 107.816 32.5343 107.473 32.6691 107.134L22.3716 99.3492C22.2063 99.5742 21.9936 99.7637 21.7302 99.8968C21.6031 100.013 21.4499 100.108 21.2862 100.186C21.0028 100.824 20.4087 101.31 19.5007 101.31C19.3602 101.31 19.2282 101.293 19.1028 101.27C18.705 101.246 18.3802 101.117 18.1124 100.929C18.0206 100.877 17.9345 100.815 17.8553 100.747C17.7922 100.705 17.7249 100.666 17.6686 100.616C15.0581 98.7803 12.2012 91.7087 6.63458 90.5002C-0.89504 88.8651 -0.0604864 96.056 0.116965 97.1954C0.120002 97.2077 0.123085 97.2215 0.126169 97.2337C0.138691 97.2687 0.147755 97.3039 0.158127 97.3389C0.172097 97.3758 0.18602 97.4127 0.198121 97.4491C0.219847 97.4908 0.238069 97.532 0.256291 97.5762C12.0268 120.382 20.9048 121.558 26.5742 117.841C27.6228 117.151 28.5567 116.292 29.3834 115.372C29.4173 115.319 29.4525 115.267 29.4925 115.218C29.5107 115.19 29.5244 115.161 29.5445 115.135C29.6668 114.904 29.7984 114.678 29.9347 114.456C29.9728 114.364 30.0174 114.277 30.0678 114.193C30.074 114.176 30.0817 114.16 30.0879 114.145C30.1799 113.931 30.2762 113.717 30.3817 113.51C30.4155 113.431 30.4506 113.351 30.4858 113.27C30.527 113.119 30.5821 112.969 30.6438 112.824C30.6911 112.646 30.7505 112.472 30.8242 112.304Z" fill="#14472C"/>
</g>
<defs>
<clipPath id="clip0_268_24">
<rect width="255" height="122" fill="white"/>
</clipPath>
</defs>
</svg>
